<?xml version="1.0" encoding="UTF-8" standalone="no"?>
<!-- Uploaded to: SVG Repo, www.svgrepo.com, Generator: SVG Repo Mixer Tools -->

<svg
   width="800"
   height="181.0979"
   viewBox="0 -198 512 115.90266"
   version="1.1"
   preserveAspectRatio="xMidYMid"
   id="svg1"
   sodipodi:docname="vercel.svg"
   xmlns:inkscape="http://www.inkscape.org/namespaces/inkscape"
   xmlns:sodipodi="http://sodipodi.sourceforge.net/DTD/sodipodi-0.dtd"
   xmlns="http://www.w3.org/2000/svg"
   xmlns:svg="http://www.w3.org/2000/svg">
  <defs
     id="defs1" />
  <sodipodi:namedview
     id="namedview1"
     pagecolor="#ffffff"
     bordercolor="#cccccc"
     borderopacity="1"
     inkscape:showpageshadow="0"
     inkscape:pageopacity="1"
     inkscape:pagecheckerboard="0"
     inkscape:deskcolor="#d1d1d1" />
  <g
     id="g1"
     style="opacity:0.901643;fill:#000000;fill-opacity:1"
     transform="translate(0,-198)">
    <path
       d="m 255.42049,28.975665 c -19.99321,0 -34.40861,13.039049 -34.40861,32.597623 0,19.558574 16.22638,32.597623 36.21959,32.597623 12.07923,0 22.72778,-4.780985 29.31975,-12.839841 l -13.85399,-8.004528 c -3.65818,4.002264 -9.21789,6.338427 -15.46576,6.338427 -8.67459,0 -16.04528,-4.527448 -18.77986,-11.771364 h 50.74364 c 0.39841,-2.028297 0.63384,-4.129032 0.63384,-6.338427 0,-19.540464 -14.41539,-32.579513 -34.4086,-32.579513 z m -17.13187,26.259196 c 2.26373,-7.225806 8.45728,-11.771363 17.11376,-11.771363 8.67459,0 14.86813,4.545557 17.11375,11.771363 z M 450.42671,28.975665 c -19.99321,0 -34.4086,13.039049 -34.4086,32.597623 0,19.558574 16.22637,32.597623 36.21958,32.597623 12.07923,0 22.72779,-4.780985 29.31975,-12.839841 l -13.85399,-8.004528 c -3.65818,4.002264 -9.21788,6.338427 -15.46576,6.338427 -8.67459,0 -16.04527,-4.527448 -18.77985,-11.771364 h 50.74363 c 0.39842,-2.028297 0.63384,-4.129032 0.63384,-6.338427 0,-19.540464 -14.41539,-32.579513 -34.4086,-32.579513 z m -17.11375,26.259196 c 2.26372,-7.225806 8.45727,-11.771363 17.11375,-11.771363 8.67459,0 14.86814,4.545557 17.11375,11.771363 z m -70.68251,6.338427 c 0,10.865874 7.09903,18.109791 18.10979,18.109791 7.46123,0 13.05716,-3.386531 15.93661,-8.910017 l 13.90832,8.022637 c -5.75891,9.598189 -16.55235,15.375212 -29.84493,15.375212 -20.01132,0 -34.4086,-13.039049 -34.4086,-32.597623 0,-19.558574 14.41539,-32.597623 34.4086,-32.597623 13.29258,0 24.06791,5.777023 29.84493,15.375212 l -13.90832,8.022637 c -2.87945,-5.523486 -8.47538,-8.910016 -15.93661,-8.910016 -10.99265,0 -18.10979,7.243916 -18.10979,18.10979 z M 512,9.0548953 V 92.359932 H 495.70119 V 9.0548953 Z M 66.915676,0 133.83135,115.90266 H 0 Z M 234.21392,9.0548953 184.03169,95.98189 133.84946,9.0548953 h 18.81607 L 184.03169,63.384267 215.39785,9.0548953 Z M 340.8987,30.786644 v 17.548387 c -1.81098,-0.525184 -3.73062,-0.88738 -5.79514,-0.88738 -10.52178,0 -18.10978,7.243917 -18.10978,18.109791 v 26.80249 H 300.69496 V 30.786644 h 16.29882 v 16.661007 c 0,-9.199773 10.70288,-16.661007 23.90492,-16.661007 z"
       fill="#000000"
       fill-rule="nonzero"
       id="path1"
       style="fill:#000000;fill-opacity:1" />
  </g>
</svg>
