<?xml version="1.0" encoding="UTF-8" standalone="no"?>
<svg
   height="200"
   preserveAspectRatio="xMidYMid"
   viewBox="0 0 822.10675 200"
   width="822.10675"
   version="1.1"
   id="svg1"
   sodipodi:docname="nextjs.svg"
   xml:space="preserve"
   inkscape:export-filename="../../GitHub/My Projects/third-bracket-ui-component-library/public/images/logos/logo5.svg"
   inkscape:export-xdpi="96"
   inkscape:export-ydpi="96"
   xmlns:inkscape="http://www.inkscape.org/namespaces/inkscape"
   xmlns:sodipodi="http://sodipodi.sourceforge.net/DTD/sodipodi-0.dtd"
   xmlns="http://www.w3.org/2000/svg"
   xmlns:svg="http://www.w3.org/2000/svg"><defs
     id="defs1" /><sodipodi:namedview
     id="namedview1"
     pagecolor="#ffffff"
     bordercolor="#cccccc"
     borderopacity="1"
     inkscape:showpageshadow="0"
     inkscape:pageopacity="1"
     inkscape:pagecheckerboard="0"
     inkscape:deskcolor="#d1d1d1" /><path
     d="M 102.47075,18.205461 H 59.817952 V 150.3251 H 42.392727 V 18.205461 H 7.2949219e-6 V 2.6007769 H 102.47075 Z m 80.3641,26.527956 -48.63458,122.496753 C 125.6177,189.07673 113.39403,200 97.789345,200 93.368019,200 89.726927,199.47985 86.86607,198.69962 V 183.6151 c 3.641092,1.30039 7.022105,1.82053 9.882964,1.82053 8.582576,0 14.824456,-5.20156 19.245776,-15.34461 L 124.3173,150.06503 83.224977,44.733417 H 101.9506 l 28.60858,81.144353 c 0.26008,1.04031 1.04031,3.64109 2.08062,8.06242 h 0.52016 c 0.26008,-1.56047 1.04031,-4.16125 2.08062,-7.80234 l 29.90898,-81.404433 z m 27.56828,90.247083 h -0.52016 v 63.71912 H 192.9779 V 44.733417 h 16.90507 v 18.46554 h 0.52016 c 8.3225,-14.04422 20.54616,-21.06632 36.41094,-21.06632 13.52405,0 24.18726,4.6814 31.72952,14.04422 7.54226,9.36281 11.44344,22.10662 11.44344,37.97139 0,17.685303 -4.42133,31.729523 -13.00392,42.392723 -8.58256,10.6632 -20.28608,15.86476 -35.11054,15.86476 -13.26397,0.52016 -23.92718,-5.46164 -31.46944,-17.42523 z m -0.26007,-42.392723 v 14.824443 c 0,8.84267 2.86085,16.12485 8.58257,22.10664 5.72171,5.9818 12.74382,9.10273 21.58648,9.10273 10.14305,0 18.20546,-3.90117 24.18727,-11.70351 5.72172,-7.80234 8.58257,-18.72562 8.58257,-32.769833 0,-11.70351 -2.60079,-21.06633 -8.06241,-27.56828 -5.46165,-6.76202 -12.74383,-9.88296 -22.10665,-9.88296 -9.88296,0 -17.68532,3.38101 -23.66711,10.14305 -6.24187,6.76202 -9.10272,15.3446 -9.10272,25.74772 z m 183.35502,9.102743 h -74.38232 c 0.26007,11.70351 3.38101,20.80623 9.36282,27.30819 5.98179,6.50195 14.30429,9.62288 24.96749,9.62288 11.96358,0 22.88686,-3.90117 32.76983,-11.70351 v 15.86476 c -9.36282,6.76203 -21.58648,10.14305 -36.67101,10.14305 -14.82445,0 -26.52796,-4.68141 -35.11052,-14.3043 -8.58259,-9.62288 -12.74384,-23.14695 -12.74384,-40.312093 0,-16.38492 4.68141,-29.90897 14.04422,-40.05202 9.3628,-10.40312 20.80624,-15.60468 34.59038,-15.60468 13.78413,0 24.44733,4.42133 31.9896,13.52406 7.54225,8.84265 11.44341,21.32639 11.44341,37.19115 z M 376.07285,87.386217 c 0,-9.88297 -2.34071,-17.42523 -7.0221,-22.88686 -4.68141,-5.46165 -11.18337,-8.06243 -19.24578,-8.06243 -8.06243,0 -14.82444,2.86086 -20.28609,8.58258 -5.46163,5.72171 -9.10273,13.26397 -10.40312,22.36671 z m 25.74773,57.737323 v -11.70351 c 10.6632,6.76203 21.32639,10.14304 32.24967,10.14304 11.44344,0 20.28609,-2.34069 26.26788,-7.28218 5.9818,-4.94148 8.84265,-11.44344 8.84265,-20.026 0,-7.54227 -2.08062,-13.52407 -5.98178,-18.205473 -3.90118,-4.42132 -12.74383,-10.6632 -26.00782,-18.46554 -15.08452,-8.84266 -24.44732,-16.12484 -28.3485,-21.84656 -3.90116,-5.98179 -5.98179,-12.74382 -5.98179,-20.286083 0,-10.40312 4.16125,-19.245773 12.22367,-26.527953 C 423.14697,3.6410909 434.07025,9.3359373e-7 447.59431,9.3359373e-7 456.43696,9.3359373e-7 465.27962,1.5604729 473.86218,4.4213319 V 15.084528 c -8.58256,-3.901173 -17.94538,-5.9817921 -27.82834,-5.9817921 -10.14305,0 -17.94538,2.6007761 -23.92718,7.5422641 -5.9818,5.201559 -8.84265,11.443424 -8.84265,19.245774 0,7.542263 2.08062,13.524053 5.9818,17.945373 3.90116,4.42133 12.74382,10.66321 26.0078,18.20547 13.78413,7.80234 22.88688,14.82444 27.56827,20.80623 4.6814,5.98181 6.76202,13.003913 6.76202,21.066333 0,11.44343 -3.90117,20.54617 -11.70351,27.82835 -7.80233,7.28219 -18.98568,10.6632 -33.28998,10.6632 -5.20157,0 -10.92328,-0.78024 -17.6853,-2.3407 -6.76204,-1.56047 -11.70353,-2.86086 -15.08453,-4.94149 z m 165.66971,0.52016 c -7.80234,4.6814 -17.16515,7.28219 -28.08842,7.28219 -14.30431,0 -26.00782,-4.94149 -34.85047,-14.82445 -8.84265,-9.88297 -13.26398,-22.6268 -13.26398,-38.751633 0,-16.64499 4.94148,-30.42913 14.82446,-41.09233 9.88296,-10.6632 22.62678,-16.12484 38.23146,-16.12484 8.06243,0 15.86476,1.56047 23.40703,4.94149 v 10.66319 c -7.54227,-4.6814 -15.86477,-7.0221 -24.7074,-7.0221 -12.48376,0 -22.36672,4.42133 -30.16908,13.26398 -7.80233,8.84265 -11.44343,20.54616 -11.44343,34.59037 0,13.784143 3.6411,24.707423 10.6632,33.029923 7.02211,8.32249 16.38493,12.48375 27.82837,12.48375 10.66318,0 19.76592,-2.86086 27.56826,-8.32251 z M 630.4292,54.616387 c -3.12095,-2.3407 -6.76205,-3.38102 -11.1834,-3.38102 -8.3225,0 -15.3446,4.42133 -20.8062,13.0039 -5.72175,8.58258 -8.3225,20.80625 -8.3225,36.671003 v 49.67492 h -9.36285 V 44.733417 h 9.36285 v 23.40703 h 0.52015 c 2.3407,-8.06243 6.24185,-14.3043 11.44345,-18.72562 5.20155,-4.42133 11.1833,-6.76203 18.20545,-6.76203 3.90115,0 7.54225,0.52015 10.4031,1.82054 v 10.14305 z m 15.0845,-36.410926 c -2.08065,0 -3.9012,-0.780231 -5.46165,-2.340702 -1.56045,-1.560461 -2.3407,-3.381017 -2.3407,-5.721719 0,-2.3407021 0.78025,-4.1612471 2.3407,-5.4616351 1.56045,-1.300387 3.381,-2.080628 5.46165,-2.080628 2.08065,0 3.9012,0.780241 5.7217,2.080628 1.5605,1.300388 2.3407,3.120933 2.3407,5.4616351 0,2.080629 -0.7802,4.161258 -2.3407,5.721719 -1.8205,1.560471 -3.64105,2.340702 -5.7217,2.340702 z M 640.8323,150.3251 V 44.733417 h 9.3628 V 150.3251 Z m 41.87255,-18.72561 h -0.52015 v 67.36021 h -9.3628 V 44.733417 h 9.3628 v 21.84655 h 0.52015 c 3.90115,-7.80233 9.10275,-13.78413 16.12485,-17.94537 7.0221,-4.16126 14.82445,-6.24187 23.14695,-6.24187 13.52405,0 23.92715,4.6814 31.46945,13.78413 7.54225,9.36281 11.18335,21.84655 11.18335,37.71131 0,17.685313 -4.42135,31.989603 -13.0039,42.912883 -8.5826,10.92328 -20.026,16.38491 -34.07025,16.38491 -15.60465,-0.26007 -27.3082,-7.28218 -34.85045,-21.58647 z M 682.1847,92.327707 v 13.263973 c 0,10.66321 3.381,19.76593 9.88295,27.30819 6.76205,7.54227 15.3446,11.44344 26.2679,11.44344 10.6632,0 19.50585,-4.6814 26.2679,-13.78414 6.762,-9.36281 10.143,-21.32639 10.143,-36.410923 0,-13.26398 -3.1209,-23.6671 -9.3628,-31.46944 -6.24185,-7.80235 -14.30425,-11.70352 -24.7074,-11.70352 -12.22365,0 -21.84655,4.16126 -28.6086,12.48375 -6.762,8.3225 -9.88295,17.6853 -9.88295,28.86867 z m 139.922,56.436933 c -4.9415,2.34069 -9.6229,3.38101 -13.78415,3.38101 -15.6047,0 -23.40705,-9.36281 -23.40705,-28.08843 V 53.576077 h -18.9857 v -8.58258 h 18.9857 V 17.42523 l 4.68145,-1.560471 4.6814,-1.560461 v 30.689199 h 27.82835 v 8.58258 h -27.82835 v 69.700913 c 0,7.28218 1.0403,12.48374 3.381,15.86476 2.3407,3.38102 6.2419,4.94149 11.7035,4.94149 3.9012,0 8.06245,-1.3004 12.74385,-3.90118 z"
     fill="#007acc"
     id="path1"
     style="stroke-width:1.60567" /></svg>
