<?xml version="1.0" encoding="UTF-8" standalone="no"?>
<svg
   height="199.99997"
   preserveAspectRatio="xMidYMid"
   viewBox="0 0 1203.4523 199.99997"
   width="1203.4523"
   version="1.1"
   id="svg1"
   sodipodi:docname="nextjs.svg"
   xml:space="preserve"
   inkscape:export-filename="../../GitHub/My Projects/third-bracket-ui-component-library/public/images/logos/logo4.svg"
   inkscape:export-xdpi="96"
   inkscape:export-ydpi="96"
   xmlns:inkscape="http://www.inkscape.org/namespaces/inkscape"
   xmlns:sodipodi="http://sodipodi.sourceforge.net/DTD/sodipodi-0.dtd"
   xmlns="http://www.w3.org/2000/svg"
   xmlns:svg="http://www.w3.org/2000/svg"><defs
     id="defs1" /><sodipodi:namedview
     id="namedview1"
     pagecolor="#ffffff"
     bordercolor="#cccccc"
     borderopacity="1"
     inkscape:showpageshadow="0"
     inkscape:pageopacity="1"
     inkscape:pagecheckerboard="0"
     inkscape:deskcolor="#d1d1d1" /><g
     id="g5"
     transform="matrix(0.49999984,0,0,0.49999984,180.88946,2.0634766e-5)"><text
       xml:space="preserve"
       style="font-style:normal;font-variant:normal;font-weight:300;font-stretch:normal;font-size:493.07px;line-height:1.05;font-family:Geist;-inkscape-font-specification:'Geist, Light';font-variant-ligatures:normal;font-variant-caps:normal;font-variant-numeric:normal;font-variant-east-asian:normal;fill:#6b7280;fill-opacity:1;stroke:#64748b;stroke-width:42.0313;stroke-linecap:round;stroke-linejoin:round;stroke-miterlimit:50;stroke-opacity:0;paint-order:stroke fill markers"
       x="103.11545"
       y="371.09531"
       id="text3"><tspan
         sodipodi:role="line"
         id="tspan3"
         x="103.11545"
         y="371.09531"
         style="font-style:normal;font-variant:normal;font-weight:300;font-stretch:normal;font-size:493.07px;font-family:Geist;-inkscape-font-specification:'Geist, Light';font-variant-ligatures:normal;font-variant-caps:normal;font-variant-numeric:normal;font-variant-east-asian:normal;fill:#6b7280;fill-opacity:1;stroke-width:42.0313">React.Js</tspan></text><g
       style="fill:#00d8ff;fill-opacity:1"
       id="g4"
       transform="matrix(29.325359,0,0,29.325359,-361.77902,-22.40032)"><path
         fill-rule="evenodd"
         clip-rule="evenodd"
         d="M 5.31537,1.83658 C 4.91591,1.72069 4.6196,1.75177 4.40406,1.86852 4.18851,1.98528 4.00061,2.21648 3.87946,2.61438 3.75743,3.01517 3.71578,3.55024 3.77508,4.1963 3.78469,4.30099 3.79689,4.40794 3.81168,4.51697 4.33487,4.38401 4.89711,4.279 5.48788,4.20569 5.89742,3.63189 6.327,3.11445 6.76281,2.66575 6.74097,2.64805 6.71917,2.63058 6.69739,2.61335 6.18865,2.21073 5.71773,1.95332 5.31537,1.83658 Z M 7.49994,1.9775 C 7.43924,1.92661 7.37857,1.87716 7.31796,1.8292 6.746,1.37655 6.16025,1.04047 5.59401,0.876189 5.02487,0.711062 4.44065,0.711415 3.92776,0.989234 3.41488,1.26705 3.09543,1.7562 2.92282,2.32312 2.75109,2.88714 2.71259,3.56136 2.77927,4.28771 2.7949,4.45796 2.81643,4.63245 2.84379,4.81065 2.67409,4.87146 2.51042,4.93563 2.35329,5.00297 1.68286,5.2903 1.10837,5.64527 0.694221,6.06491 0.277951,6.4867 0,7.00057 0,7.58387 0,8.16716 0.27795,8.68103 0.694221,9.10282 1.10837,9.52246 1.68286,9.87743 2.35329,10.1648 c 0.15713,0.0673 0.32079,0.1315 0.49049,0.1923 -0.02736,0.1782 -0.0489,0.3527 -0.06453,0.523 -0.06668,0.7263 -0.02818,1.4005 0.14355,1.9646 0.17261,0.5669 0.49206,1.056 1.00494,1.3338 0.51289,0.2779 1.09711,0.2782 1.66625,0.1131 0.56624,-0.1643 1.15199,-0.5004 1.72395,-0.953 0.06062,-0.048 0.12129,-0.0974 0.182,-0.1483 0.06071,0.0509 0.12138,0.1003 0.18199,0.1483 0.57197,0.4526 1.15772,0.7887 1.72396,0.953 0.56914,0.1651 1.15331,0.1648 1.66621,-0.1131 0.5129,-0.2778 0.8324,-0.7669 1.005,-1.3338 0.1717,-0.5641 0.2102,-1.2383 0.1435,-1.9646 -0.0156,-0.1703 -0.0371,-0.3448 -0.0645,-0.523 0.1697,-0.0608 0.3334,-0.125 0.4906,-0.1923 C 13.3171,9.87743 13.8916,9.52246 14.3058,9.10282 14.722,8.68103 15,8.16716 15,7.58387 15,7.00057 14.722,6.4867 14.3058,6.06491 13.8916,5.64527 13.3171,5.2903 12.6467,5.00297 12.4895,4.93562 12.3258,4.87144 12.1561,4.81061 12.1834,4.63242 12.205,4.45795 12.2206,4.28771 12.2873,3.56136 12.2488,2.88714 12.0771,2.32312 11.9045,1.7562 11.585,1.26705 11.0721,0.989234 10.5592,0.711415 9.97501,0.711062 9.40587,0.876189 8.83963,1.04047 8.25388,1.37655 7.68191,1.8292 7.62131,1.87716 7.56064,1.92661 7.49994,1.9775 Z m 0,1.36466 C 7.27514,3.57233 7.05016,3.82461 6.82771,4.09712 7.04936,4.08834 7.27361,4.08387 7.5,4.08387 c 0.22635,0 0.45056,0.00447 0.67216,0.01325 C 7.94972,3.82461 7.72474,3.57233 7.49994,3.34216 Z M 9.51199,4.20567 C 9.10245,3.63188 8.67287,3.11444 8.23707,2.66575 8.25891,2.64805 8.28071,2.63058 8.30249,2.61335 8.81123,2.21073 9.28215,1.95332 9.68451,1.83658 10.084,1.72069 10.3803,1.75177 10.5958,1.86852 c 0.2156,0.11676 0.4035,0.34796 0.5246,0.74586 0.122,0.40079 0.1637,0.93586 0.1044,1.58192 C 11.2152,4.30098 11.203,4.40792 11.1882,4.51694 10.665,4.38399 10.1028,4.27898 9.51199,4.20567 Z M 8.94935,5.15034 C 8.484,5.10693 7.9991,5.08387 7.5,5.08387 7.00085,5.08387 6.51591,5.10693 6.05052,5.15035 5.79069,5.53887 5.53944,5.95428 5.30171,6.39316 5.08522,6.79282 4.89116,7.19123 4.71966,7.58387 4.89117,7.97652 5.08524,8.37494 5.30173,8.77462 5.53945,9.21348 5.7907,9.62888 6.05051,10.0174 6.5159,10.0608 7.00085,10.0839 7.5,10.0839 c 0.49911,0 0.98401,-0.0231 1.44936,-0.0665 C 9.20918,9.62889 9.46042,9.21349 9.69815,8.77462 9.91464,8.37494 10.1087,7.97652 10.2802,7.58387 10.1087,7.19124 9.91465,6.79282 9.69817,6.39316 9.46043,5.95427 9.20918,5.53886 8.94935,5.15034 Z M 10.7728,6.28838 C 10.7096,6.16452 10.6445,6.04064 10.5775,5.91687 10.4696,5.71781 10.3589,5.52276 10.2456,5.33206 c 0.2606,0.04961 0.5117,0.10597 0.7522,0.16844 -0.0632,0.25588 -0.1382,0.51907 -0.225,0.78788 z m 0,2.59098 C 10.7096,9.00323 10.6445,9.12712 10.5774,9.25091 10.4696,9.44995 10.3589,9.64498 10.2456,9.83568 10.5062,9.78606 10.7573,9.72969 10.9978,9.66722 10.9346,9.41135 10.8596,9.14816 10.7728,8.87936 Z m 1.1805,0.48683 C 11.8083,8.7925 11.6114,8.19354 11.3649,7.58386 c 0.2465,-0.60967 0.4434,-1.20863 0.5884,-1.78232 0.103,0.03894 0.2028,0.07916 0.2995,0.12058 0.5963,0.25556 1.0469,0.54704 1.3412,0.84523 C 13.8862,7.06339 14,7.33873 14,7.58387 14,7.829 13.8862,8.10434 13.594,8.40038 13.2997,8.69857 12.8491,8.99005 12.2528,9.24561 12.1561,9.28703 12.0563,9.32725 11.9533,9.36619 Z m -0.7651,1.28461 c -0.5232,0.1329 -1.0854,0.238 -1.67619,0.3113 -0.40954,0.5738 -0.83913,1.0912 -1.27494,1.5399 0.02184,0.0177 0.04365,0.0352 0.06544,0.0524 0.50874,0.4026 0.97966,0.6601 1.38202,0.7768 0.39947,0.1159 0.69577,0.0848 0.91127,-0.0319 0.2156,-0.1168 0.4035,-0.348 0.5246,-0.7459 0.1221,-0.4008 0.1637,-0.9359 0.1044,-1.5819 -0.0096,-0.1047 -0.0218,-0.2117 -0.0366,-0.3207 z M 7.49994,11.8256 C 7.72475,11.5954 7.94973,11.3431 8.17218,11.0706 7.95057,11.0794 7.72635,11.0839 7.5,11.0839 c -0.22639,0 -0.45065,-0.0045 -0.67231,-0.0133 0.22246,0.2725 0.44744,0.5248 0.67225,0.755 z M 4.75426,9.83565 C 4.64098,9.64497 4.53025,9.44994 4.42244,9.25091 4.35539,9.12712 4.29025,9.00323 4.22704,8.87936 4.14031,9.14815 4.06531,9.41133 4.00208,9.66719 4.24253,9.72967 4.49368,9.78603 4.75426,9.83565 Z M 3.81167,10.6508 C 4.33485,10.7837 4.8971,10.8887 5.48786,10.962 5.8974,11.5358 6.327,12.0533 6.76282,12.502 6.74097,12.5197 6.71915,12.5372 6.69737,12.5544 6.18863,12.957 5.71771,13.2145 5.31535,13.3312 4.91589,13.4471 4.61958,13.416 4.40404,13.2993 4.18849,13.1825 4.00059,12.9513 3.87944,12.5534 3.75741,12.1526 3.71576,11.6175 3.77506,10.9715 3.78468,10.8668 3.79688,10.7598 3.81167,10.6508 Z M 3.04656,9.36615 C 3.19156,8.79247 3.38844,8.19352 3.63494,7.58387 3.38844,6.97421 3.19157,6.37526 3.04656,5.80158 2.94366,5.84051 2.84383,5.88071 2.74721,5.92212 2.15089,6.17768 1.70026,6.46916 1.40597,6.76735 1.1138,7.06339 1,7.33873 1,7.58387 1,7.829 1.1138,8.10434 1.40597,8.40038 1.70026,8.69857 2.15089,8.99005 2.74721,9.24561 2.84383,9.28702 2.94366,9.32722 3.04656,9.36615 Z M 4.00208,5.50053 C 4.06531,5.7564 4.14031,6.01958 4.22704,6.28837 4.29024,6.16452 4.35538,6.04065 4.42242,5.91687 4.53024,5.71782 4.64098,5.52278 4.75427,5.33208 4.49369,5.3817 4.24254,5.43806 4.00208,5.50053 Z M 6,7.58387 c 0,-0.82843 0.67157,-1.5 1.5,-1.5 0.82843,0 1.5,0.67157 1.5,1.5 0,0.82842 -0.67157,1.5 -1.5,1.5 -0.82843,0 -1.5,-0.67158 -1.5,-1.5 z m 1.5,-0.5 c -0.27614,0 -0.5,0.22385 -0.5,0.5 0,0.27614 0.22386,0.5 0.5,0.5 0.27614,0 0.5,-0.22386 0.5,-0.5 0,-0.27615 -0.22386,-0.5 -0.5,-0.5 z"
         fill="#000000"
         id="path1-5"
         style="fill:#00d8ff;fill-opacity:1" /></g></g></svg>
