<?xml version="1.0" encoding="UTF-8" standalone="no"?>
<!-- Created with Inkscape (http://www.inkscape.org/) -->

<svg
   width="104.033"
   height="24"
   viewBox="0 0 27.525397 6.35"
   version="1.1"
   id="svg1"
   xmlns:inkscape="http://www.inkscape.org/namespaces/inkscape"
   xmlns:sodipodi="http://sodipodi.sourceforge.net/DTD/sodipodi-0.dtd"
   xmlns="http://www.w3.org/2000/svg"
   xmlns:svg="http://www.w3.org/2000/svg">
  <sodipodi:namedview
     id="namedview1"
     pagecolor="#ffffff"
     bordercolor="#cccccc"
     borderopacity="1"
     inkscape:showpageshadow="0"
     inkscape:pageopacity="1"
     inkscape:pagecheckerboard="0"
     inkscape:deskcolor="#d1d1d1"
     inkscape:document-units="px" />
  <defs
     id="defs1" />
  <g
     inkscape:label="Layer 1"
     inkscape:groupmode="layer"
     id="layer1">
    <g
       id="g6"
       transform="matrix(0.15337223,0,0,0.15337223,-1.4073736,-18.722162)">
      <path
         id="path3"
         style="display:inline;fill:#000000;stroke:#000000;stroke-width:0;stroke-linecap:round;stroke-linejoin:round;stroke-miterlimit:53200.3;stroke-dashoffset:1.6776;paint-order:markers fill stroke"
         d="m 158.79463,122.82779 v 28.99979 h 29.00029 v -28.99979 z m 4.27674,7.5675 h 3.97495 v 9.10694 c 0,0.098 0.003,0.19323 0.009,0.28577 0.006,0.0925 0.0156,0.18219 0.0279,0.26923 0.0122,0.087 0.0276,0.17167 0.046,0.25322 0.0184,0.0815 0.0396,0.1601 0.0641,0.23616 0.0245,0.0761 0.0521,0.14958 0.0827,0.22014 0.0306,0.0706 0.0645,0.13853 0.10128,0.20361 0.0368,0.0651 0.0765,0.12697 0.11938,0.18655 0.0429,0.0596 0.089,0.11644 0.13797,0.17053 0.049,0.0524 0.10052,0.10143 0.15503,0.14728 0.0545,0.0458 0.11208,0.0889 0.17208,0.12816 0.06,0.0393 0.12261,0.0752 0.18811,0.108 0.0655,0.0327 0.13365,0.0622 0.20464,0.0884 0.071,0.0262 0.14469,0.0491 0.22117,0.0687 0.0765,0.0196 0.15574,0.036 0.23771,0.0491 0.082,0.0131 0.16678,0.0229 0.25425,0.0294 0.0875,0.007 0.17782,0.01 0.27078,0.01 0.0947,0 0.18598,-0.003 0.27492,-0.01 0.089,-0.007 0.17514,-0.0163 0.25839,-0.0294 0.0832,-0.0131 0.16379,-0.0294 0.24132,-0.0491 0.0775,-0.0196 0.15245,-0.0425 0.22428,-0.0687 0.0718,-0.0262 0.14058,-0.0556 0.20671,-0.0884 0.0661,-0.0328 0.12922,-0.0687 0.18965,-0.108 0.0604,-0.0393 0.11839,-0.0823 0.17311,-0.12816 0.0547,-0.0459 0.10654,-0.0949 0.15555,-0.14728 0.049,-0.0541 0.0946,-0.11095 0.13746,-0.17053 0.0429,-0.0596 0.0831,-0.12148 0.11989,-0.18655 0.0368,-0.0651 0.0701,-0.13304 0.10077,-0.20361 0.0306,-0.0706 0.0582,-0.14408 0.0827,-0.22014 0.0245,-0.0761 0.0462,-0.15461 0.0646,-0.23616 0.0184,-0.0816 0.0337,-0.16617 0.046,-0.25322 0.0122,-0.087 0.0213,-0.17669 0.0274,-0.26923 0.006,-0.0925 0.009,-0.18774 0.009,-0.28577 v -9.10694 h 3.97547 v 9.10694 c 0,0.14366 -0.004,0.28473 -0.0124,0.42375 -0.008,0.13901 -0.0201,0.27594 -0.0362,0.41031 -0.0161,0.13437 -0.0359,0.26663 -0.0599,0.39636 -0.0241,0.12972 -0.0521,0.25681 -0.0842,0.38188 -0.0321,0.12508 -0.0684,0.24803 -0.10852,0.36846 -0.0401,0.12042 -0.0841,0.2382 -0.13229,0.35398 -0.0482,0.11578 -0.10038,0.22942 -0.15658,0.34055 -0.0562,0.11113 -0.11664,0.22011 -0.18087,0.32659 -0.0642,0.10479 -0.13158,0.20654 -0.20257,0.30541 -0.071,0.0989 -0.14549,0.19488 -0.22324,0.28784 -0.0777,0.093 -0.15889,0.18271 -0.2434,0.26975 -0.0845,0.087 -0.17228,0.17105 -0.26355,0.25218 -0.0913,0.0811 -0.18619,0.1594 -0.28422,0.23461 -0.098,0.0752 -0.19958,0.14775 -0.30437,0.21704 -0.10479,0.0693 -0.21246,0.13558 -0.32401,0.19896 -0.11155,0.0634 -0.22689,0.12391 -0.3452,0.18138 -0.11662,0.0575 -0.236,0.11095 -0.35812,0.16123 -0.12211,0.0503 -0.24704,0.097 -0.37465,0.14004 -0.12761,0.0431 -0.25757,0.0829 -0.39068,0.11886 -0.1331,0.0359 -0.26913,0.0679 -0.40772,0.0966 -0.1386,0.0287 -0.28018,0.0539 -0.42427,0.0754 -0.14408,0.0215 -0.2907,0.0399 -0.44028,0.0543 -0.14958,0.0144 -0.30174,0.0249 -0.45682,0.032 -0.15507,0.007 -0.31279,0.0109 -0.47336,0.0109 -0.15887,0 -0.31541,-0.004 -0.46922,-0.0109 -0.1538,-0.007 -0.30498,-0.0177 -0.45372,-0.032 -0.14873,-0.0144 -0.29506,-0.0327 -0.43873,-0.0543 -0.14366,-0.0215 -0.28463,-0.0467 -0.42323,-0.0754 -0.13859,-0.0287 -0.27472,-0.0607 -0.40824,-0.0966 -0.13353,-0.0359 -0.26481,-0.0758 -0.39326,-0.11886 -0.12845,-0.0431 -0.25437,-0.0898 -0.37776,-0.14004 -0.12338,-0.0503 -0.24393,-0.10376 -0.36225,-0.16123 -0.11662,-0.0575 -0.22996,-0.118 -0.34003,-0.18138 -0.11007,-0.0634 -0.21687,-0.12966 -0.32039,-0.19896 -0.10353,-0.0693 -0.20378,-0.14183 -0.30076,-0.21704 -0.097,-0.0752 -0.19069,-0.15348 -0.28112,-0.23461 -0.0904,-0.0811 -0.17761,-0.16514 -0.26148,-0.25218 -0.0839,-0.087 -0.16452,-0.17679 -0.24185,-0.26975 -0.0773,-0.093 -0.15143,-0.18896 -0.22221,-0.28784 -0.0708,-0.0989 -0.13834,-0.20062 -0.20257,-0.30541 -0.0642,-0.10648 -0.12415,-0.21546 -0.18035,-0.32659 -0.0562,-0.11113 -0.10841,-0.22477 -0.15658,-0.34055 -0.0482,-0.11578 -0.0927,-0.23356 -0.13281,-0.35398 -0.0401,-0.12043 -0.0759,-0.24338 -0.108,-0.36846 -0.0321,-0.12507 -0.0607,-0.25216 -0.0848,-0.38188 -0.0241,-0.12973 -0.0439,-0.26199 -0.0599,-0.39636 -0.0161,-0.13437 -0.0282,-0.2713 -0.0362,-0.41031 -0.008,-0.13902 -0.0119,-0.28009 -0.0119,-0.42375 z m 15.06936,0.0207 h 3.97547 v 14.40016 h -3.97547 z" />
      <path
         d="m 141.31982,163.31459 v -7.01322 h 2.94358 q 1.34338,0 2.07433,0.46425 0.74084,0.45438 0.74084,1.45204 0,1.28411 -1.45204,1.46191 v 0.0197 q 0.87912,0.0889 1.31375,0.52353 0.43462,0.42474 0.43462,1.1557 0,0.98777 -0.73096,1.46191 -0.73095,0.47413 -2.08421,0.47413 z m 1.93604,-4.19806 h 0.92852 q 0.41486,0 0.68156,-0.15804 0.27658,-0.16792 0.27658,-0.50377 0,-0.3556 -0.2667,-0.51364 -0.2667,-0.15805 -0.69144,-0.15805 h -0.92852 z m 0,2.71639 h 1.17546 q 0.42475,0 0.7112,-0.16792 0.29633,-0.1778 0.29633,-0.55315 0,-0.37536 -0.28645,-0.55316 -0.28646,-0.1778 -0.72108,-0.1778 h -1.17546 z m 5.07716,1.48167 v -7.01322 h 3.34856 q 0.79023,0 1.37301,0.25682 0.59267,0.25682 0.90876,0.72108 0.32597,0.46425 0.32597,1.09643 0,0.66181 -0.33585,1.11619 -0.32596,0.45438 -0.92851,0.64206 0.56303,0.0691 0.83961,0.37535 0.28646,0.30621 0.32597,0.82973 l 0.15804,1.97556 h -1.97555 l -0.0988,-1.63971 q -0.0198,-0.38523 -0.20743,-0.56303 -0.18768,-0.18768 -0.66181,-0.18768 h -1.13595 v 2.39042 z m 1.93604,-3.94123 h 1.05692 q 0.48401,0 0.73096,-0.19756 0.25682,-0.20743 0.25682,-0.57291 0,-0.75071 -0.98778,-0.75071 h -1.05692 z m 4.58328,3.94123 2.52871,-7.01322 h 2.20274 l 2.52871,7.01322 h -1.97555 l -0.39511,-1.1557 h -2.52871 l -0.39512,1.1557 z m 2.87443,-2.65712 h 1.5113 l -0.75071,-2.2225 z m 7.85282,2.81516 q -0.9779,0 -1.74836,-0.43462 -0.76059,-0.43462 -1.20509,-1.2446 -0.43462,-0.81985 -0.43462,-1.97555 0,-1.10632 0.41486,-1.92617 0.41487,-0.82973 1.18534,-1.28411 0.77046,-0.46426 1.82738,-0.46426 1.44216,0 2.24226,0.70132 0.80998,0.70133 1.03717,2.04471 l -2.00519,0.0691 q -0.0988,-0.60255 -0.43462,-0.92851 -0.33585,-0.33585 -0.83962,-0.33585 -0.72107,0 -1.08655,0.59267 -0.3556,0.59267 -0.3556,1.53106 0,0.95814 0.37535,1.53105 0.37536,0.57291 1.04705,0.57291 0.57291,0 0.889,-0.34572 0.31609,-0.3556 0.40499,-0.99765 l 2.01507,0.0691 q -0.22719,1.37301 -1.05693,2.10397 -0.82973,0.72107 -2.27189,0.72107 z m 4.25732,-0.15804 v -7.01322 h 1.93604 v 2.77565 l 2.14348,-2.77565 h 2.19287 l -2.45957,3.13125 2.59786,3.88197 h -2.14348 l -1.71874,-2.62749 -0.61242,0.75071 v 1.87678 z m 7.02308,0 v -7.01322 h 5.19571 v 1.55081 h -3.25966 v 1.17545 h 3.14113 v 1.54094 h -3.14113 v 1.19521 h 3.33869 v 1.55081 z m 7.79356,0 v -5.46241 h -2.0447 v -1.55081 h 6.03532 v 1.55081 h -2.0447 v 5.46241 z"
         id="text1"
         style="font-weight:900;font-size:9.87778px;line-height:2.45;font-family:Geist;-inkscape-font-specification:'Geist, Heavy';fill:#000000;fill-opacity:1;stroke:#000000;stroke-width:0;stroke-linecap:round;stroke-linejoin:round;stroke-miterlimit:53200.3;stroke-dashoffset:1.6776;paint-order:markers fill stroke"
         aria-label="BRACKET" />
      <path
         id="path6-4-5"
         style="font-style:normal;font-variant:normal;font-weight:500;font-stretch:normal;font-size:176.389px;line-height:1.05;font-family:Geist;-inkscape-font-specification:'Geist, Medium';font-variant-ligatures:normal;font-variant-caps:normal;font-variant-numeric:normal;font-variant-east-asian:normal;fill:#000000;fill-opacity:1;stroke:#000000;stroke-width:0;stroke-linecap:round;stroke-miterlimit:50;stroke-dasharray:none;stroke-dashoffset:1.6776;paint-order:markers fill stroke"
         d="m 93.988146,122.07009 0.008,5.71689 h 8.324284 c 2.61784,0 4.6196,0.59683 6.00551,1.79025 1.42441,1.15493 2.13673,2.82958 2.13673,5.02394 0,2.19437 -0.69296,3.86901 -2.07887,5.02394 -1.34741,1.15493 -3.1953,1.73239 -5.54365,1.73239 h -8.824374 l 0.008,5.71689 h 9.451354 c 2.27135,0 3.90762,0.40422 4.90855,1.21268 1.00094,0.76995 1.55904,1.98263 1.67453,3.63802 l 0.98175,11.145 h 6.2943 l -1.09712,-11.95351 c -0.19249,-2.11736 -0.8277,-3.75346 -1.90564,-4.90838 -1.03943,-1.15493 -2.50229,-1.88644 -4.38866,-2.19442 1.92488,-0.57746 3.56097,-1.7132 4.90838,-3.40709 1.38591,-1.7324 2.07887,-3.79191 2.07887,-6.17876 0,-3.77276 -1.28961,-6.77557 -3.86895,-9.00844 -2.54084,-2.23285 -5.98644,-3.3494 -10.33666,-3.3494 z" />
      <path
         id="rect9-2"
         style="fill:#000000;fill-opacity:1;stroke:#64748b;stroke-width:0.235215;stroke-linecap:round;stroke-linejoin:round;stroke-miterlimit:50;stroke-opacity:0;paint-order:stroke fill markers"
         d="m 70.680505,122.23412 h 6.129049 v 40.92806 h -6.129049 z" />
      <path
         id="rect9-38-91"
         style="fill:#000000;fill-opacity:1;stroke:#64748b;stroke-width:0.180733;stroke-linecap:round;stroke-linejoin:round;stroke-miterlimit:50;stroke-opacity:0;paint-order:stroke fill markers"
         d="m 45.189973,139.97137 h 6.38585 v 23.17375 h -6.38585 z" />
      <path
         id="rect9-38-9-2"
         style="fill:#000000;fill-opacity:1;stroke:#64748b;stroke-width:0.13514;stroke-linecap:round;stroke-linejoin:round;stroke-miterlimit:50;stroke-opacity:0;paint-order:stroke fill markers"
         d="m 45.229085,122.26717 h 6.431441 v 12.86486 h -6.431441 z" />
      <path
         id="rect9-3-7"
         style="fill:#000000;fill-opacity:1;stroke:#64748b;stroke-width:0.19801;stroke-linecap:round;stroke-linejoin:round;stroke-miterlimit:50;stroke-opacity:0;paint-order:stroke fill markers"
         d="m 76.825945,139.68738 v 5.63492 H 45.303274 v -5.63492 z" />
      <path
         id="rect9-5-9"
         style="fill:#000000;fill-opacity:1;stroke:#64748b;stroke-width:0.235215;stroke-linecap:round;stroke-linejoin:round;stroke-miterlimit:50;stroke-opacity:0;paint-order:stroke fill markers"
         d="m 21.70502,122.23412 h 6.12905 v 40.92806 h -6.12905 z" />
      <path
         id="rect9-38-9-8-3"
         style="fill:#000000;fill-opacity:1;stroke:#64748b;stroke-width:0.146871;stroke-linecap:round;stroke-linejoin:round;stroke-miterlimit:50;stroke-opacity:0;paint-order:stroke fill markers"
         d="m 40.805545,122.2568 v 6.41972 h -15.22284 v -6.41972 z" />
      <path
         id="rect9-38-9-8-9-6"
         style="fill:#000000;fill-opacity:1;stroke:#64748b;stroke-width:0.106097;stroke-linecap:round;stroke-linejoin:round;stroke-miterlimit:50;stroke-opacity:0;paint-order:stroke fill markers"
         d="m 17.123105,122.27453 v 6.46052 H 9.229202 v -6.46052 z" />
      <path
         id="rect9-5-3-0"
         style="fill:#000000;fill-opacity:1;stroke:#64748b;stroke-width:0.235215;stroke-linecap:round;stroke-linejoin:round;stroke-miterlimit:50;stroke-opacity:0;paint-order:stroke fill markers"
         d="m 82.363134,122.19282 h 6.12905 v 40.92806 h -6.12905 z" />
      <path
         id="rect9-38-9-2-5"
         style="fill:#000000;fill-opacity:1;stroke:#64748b;stroke-width:0.143665;stroke-linecap:round;stroke-linejoin:round;stroke-miterlimit:50;stroke-opacity:0;paint-order:stroke fill markers"
         d="m 122.10287,162.89256 v -6.51333 h 14.35634 v 6.51333 z" />
      <path
         id="path11-6"
         style="font-style:normal;font-variant:normal;font-weight:500;font-stretch:normal;font-size:56.338px;line-height:1.05;font-family:Geist;-inkscape-font-specification:'Geist, Medium';font-variant-ligatures:normal;font-variant-caps:normal;font-variant-numeric:normal;font-variant-east-asian:normal;fill:#000000;fill-opacity:1;stroke:#000000;stroke-width:0;stroke-linecap:round;stroke-miterlimit:50;stroke-dasharray:none;stroke-dashoffset:1.6776;paint-order:markers fill stroke"
         d="m 122.34301,122.17521 v 29.89331 l 5.62981,0.0225 v -24.75506 h 6.25521 c 8.16685,0 12.25034,4.46556 12.25034,13.39696 0,5.52878 -1.58938,9.33266 -4.76816,11.41213 l 7.71886,0.0302 c 1.92238,-2.97286 2.88806,-6.7846 2.88806,-11.44226 0,-5.94267 -1.56393,-10.51243 -4.69166,-13.70966 -3.12773,-3.23199 -7.59377,-4.84802 -13.39744,-4.84802 z" />
    </g>
  </g>
</svg>
