<?xml version="1.0" encoding="UTF-8" standalone="no"?>
<!-- Created with Inkscape (http://www.inkscape.org/) -->

<svg
   width="104.033"
   height="24"
   viewBox="0 0 27.525397 6.35"
   version="1.1"
   id="svg1"
   inkscape:export-filename="LOGO.svg"
   inkscape:export-xdpi="96"
   inkscape:export-ydpi="96"
   xmlns:inkscape="http://www.inkscape.org/namespaces/inkscape"
   xmlns:sodipodi="http://sodipodi.sourceforge.net/DTD/sodipodi-0.dtd"
   xmlns="http://www.w3.org/2000/svg"
   xmlns:svg="http://www.w3.org/2000/svg">
  <sodipodi:namedview
     id="namedview1"
     pagecolor="#ffffff"
     bordercolor="#cccccc"
     borderopacity="1"
     inkscape:showpageshadow="0"
     inkscape:pageopacity="1"
     inkscape:pagecheckerboard="0"
     inkscape:deskcolor="#d1d1d1"
     inkscape:document-units="px" />
  <defs
     id="defs1" />
  <g
     id="g1">
    <path
       d="M 20.267162,6.3257609 V 5.2501277 h 0.451464 q 0.206037,0 0.318144,0.071203 0.113625,0.069689 0.113625,0.2227026 0,0.1969469 -0.222703,0.2242164 v 0.00302 q 0.134833,0.013635 0.201493,0.080295 0.06666,0.065143 0.06666,0.1772523 0,0.1514965 -0.112109,0.2242164 -0.112107,0.072718 -0.319659,0.072718 z M 20.564097,5.681895 h 0.142409 q 0.06363,0 0.104533,-0.024239 0.04242,-0.025754 0.04242,-0.077264 0,-0.054539 -0.0409,-0.078778 -0.0409,-0.02424 -0.106048,-0.02424 h -0.142409 z m 0,0.4166188 h 0.180283 q 0.06515,0 0.109078,-0.025754 0.04545,-0.02727 0.04545,-0.084838 0,-0.05757 -0.04393,-0.084839 -0.04393,-0.02727 -0.110594,-0.02727 h -0.180283 z m 0.778695,0.2272471 V 5.2501277 h 0.513577 q 0.121199,0 0.210581,0.039389 0.0909,0.039389 0.139379,0.1105937 0.04999,0.071203 0.04999,0.1681619 0,0.1015033 -0.05151,0.1711925 -0.04999,0.069689 -0.142407,0.098474 0.08635,0.010598 0.128773,0.057568 0.04393,0.046964 0.04999,0.1272575 l 0.02424,0.3029961 h -0.302994 l -0.01515,-0.251486 q -0.003,-0.059084 -0.03181,-0.086353 -0.02878,-0.028785 -0.101504,-0.028785 h -0.174223 v 0.3666241 z m 0.296935,-0.6044753 h 0.162102 q 0.07423,0 0.112109,-0.0303 0.03939,-0.031814 0.03939,-0.087868 0,-0.115138 -0.151498,-0.115138 h -0.162102 z m 0.702948,0.6044753 0.387834,-1.0756332 h 0.337839 l 0.387834,1.0756332 h -0.302994 l -0.0606,-0.1772523 h -0.387834 l -0.0606,0.1772523 z m 0.440858,-0.4075285 h 0.231791 L 22.900186,5.5773627 Z m 1.204404,0.4317674 q -0.149982,0 -0.26815,-0.066659 Q 23.603134,6.2166818 23.53496,6.0924537 23.4683,5.9667115 23.4683,5.7894592 q 0,-0.1696788 0.06363,-0.295421 0.06363,-0.1272575 0.181798,-0.1969468 0.118167,-0.071205 0.280269,-0.071205 0.221187,0 0.343901,0.107563 0.124228,0.1075645 0.159073,0.3136017 L 24.18943,5.65765 q -0.01515,-0.092415 -0.06666,-0.1424077 -0.05151,-0.05151 -0.128774,-0.05151 -0.110592,0 -0.166646,0.090899 -0.05454,0.090899 -0.05454,0.234822 0,0.1469521 0.05757,0.2348206 0.05757,0.087868 0.160588,0.087868 0.08787,0 0.136348,-0.053024 0.04848,-0.054539 0.06211,-0.1530118 l 0.309056,0.010598 q -0.03485,0.2105816 -0.162104,0.3226905 -0.127257,0.1105921 -0.348445,0.1105921 z m 0.652955,-0.024239 V 5.2501277 h 0.296935 v 0.4257076 l 0.32875,-0.4257076 h 0.336325 l -0.377229,0.4802468 0.398439,0.5953864 h -0.32875 l -0.263607,-0.402984 -0.09393,0.115138 v 0.287846 z m 1.077145,0 V 5.2501277 h 0.796878 v 0.2378512 h -0.499941 v 0.1802813 h 0.481762 v 0.2363374 h -0.481762 v 0.1833121 h 0.512062 v 0.2378512 z m 1.195316,0 v -0.837782 h -0.3136 V 5.2501277 h 0.92565 v 0.2378512 h -0.3136 v 0.837782 z"
       id="text1"
       style="font-weight:900;font-size:9.87778px;line-height:2.45;font-family:Geist;-inkscape-font-specification:'Geist, Heavy';fill:#000000;fill-opacity:1;stroke:#000000;stroke-width:0;stroke-linecap:round;stroke-linejoin:round;stroke-miterlimit:53200.3;stroke-dashoffset:1.6776;paint-order:markers fill stroke"
       aria-label="BRACKET" />
    <path
       id="path6-4-5"
       style="font-style:normal;font-variant:normal;font-weight:500;font-stretch:normal;font-size:176.389px;line-height:1.05;font-family:Geist;-inkscape-font-specification:'Geist, Medium';font-variant-ligatures:normal;font-variant-caps:normal;font-variant-numeric:normal;font-variant-east-asian:normal;fill:#000000;fill-opacity:1;stroke:#000000;stroke-width:0;stroke-linecap:round;stroke-miterlimit:50;stroke-dasharray:none;stroke-dashoffset:1.6776;paint-order:markers fill stroke"
       d="M 13.007798,-8.0399303e-8 13.009025,0.87681209 h 1.276714 c 0.401504,0 0.708518,0.0915371 0.921078,0.27457461 0.218465,0.1771342 0.327715,0.433979 0.327715,0.7705329 0,0.3365554 -0.10628,0.5933987 -0.31884,0.7705329 C 15.009036,2.8695867 14.725621,2.958153 14.36545,2.958153 h -1.353414 l 0.0012,0.8768122 h 1.449575 c 0.348362,0 0.59932,0.061996 0.752835,0.1859914 0.153516,0.118089 0.239114,0.3040804 0.256826,0.5579712 l 0.150574,1.7093335 h 0.965371 L 16.420176,4.4549249 C 16.390653,4.1301806 16.29323,3.8792483 16.127904,3.7021157 15.968484,3.5249815 15.744122,3.4127882 15.454805,3.3655526 c 0.295223,-0.088566 0.546154,-0.2627573 0.752809,-0.522553 0.21256,-0.2657021 0.318841,-0.5815737 0.318841,-0.9476502 0,-0.5786366 -0.19779,-1.03918428 -0.593389,-1.38164453 C 15.543371,0.17124768 15.014912,-8.0399296e-8 14.347709,-8.0399296e-8 Z" />
    <path
       id="rect9-2"
       style="fill:#000000;fill-opacity:1;stroke:#64748b;stroke-width:0.0360754;stroke-linecap:round;stroke-linejoin:round;stroke-miterlimit:50;stroke-opacity:0;paint-order:stroke fill markers"
       d="M 9.4330531,0.02515757 H 10.373079 V 6.3023854 H 9.4330531 Z" />
    <path
       id="rect9-38-91"
       style="fill:#000000;fill-opacity:1;stroke:#64748b;stroke-width:0.0277194;stroke-linecap:round;stroke-linejoin:round;stroke-miterlimit:50;stroke-opacity:0;paint-order:stroke fill markers"
       d="M 5.5235133,2.7455592 H 6.5029254 V 6.2997689 H 5.5235133 Z" />
    <path
       id="rect9-38-9-2"
       style="fill:#000000;fill-opacity:1;stroke:#64748b;stroke-width:0.0207267;stroke-linecap:round;stroke-linejoin:round;stroke-miterlimit:50;stroke-opacity:0;paint-order:stroke fill markers"
       d="M 5.529512,0.03022652 H 6.5159165 V 2.0033388 H 5.529512 Z" />
    <path
       id="rect9-3-7"
       style="fill:#000000;fill-opacity:1;stroke:#64748b;stroke-width:0.0303692;stroke-linecap:round;stroke-linejoin:round;stroke-miterlimit:50;stroke-opacity:0;paint-order:stroke fill markers"
       d="M 10.375593,2.702003 V 3.5662432 H 5.5408906 V 2.702003 Z" />
    <path
       id="rect9-5-9"
       style="fill:#000000;fill-opacity:1;stroke:#64748b;stroke-width:0.0360754;stroke-linecap:round;stroke-linejoin:round;stroke-miterlimit:50;stroke-opacity:0;paint-order:stroke fill markers"
       d="M 1.9215737,0.02515757 H 2.8615998 V 6.3023854 H 1.9215737 Z" />
    <path
       id="rect9-38-9-8-3"
       style="fill:#000000;fill-opacity:1;stroke:#64748b;stroke-width:0.0225259;stroke-linecap:round;stroke-linejoin:round;stroke-miterlimit:50;stroke-opacity:0;paint-order:stroke fill markers"
       d="M 4.8510638,0.02863605 V 1.0132428 H 2.5163029 V 0.02863605 Z" />
    <path
       id="rect9-38-9-8-9-6"
       style="fill:#000000;fill-opacity:1;stroke:#64748b;stroke-width:0.0162723;stroke-linecap:round;stroke-linejoin:round;stroke-miterlimit:50;stroke-opacity:0;paint-order:stroke fill markers"
       d="M 1.2188352,0.03135534 V 1.0222197 H 0.00812969 V 0.03135534 Z" />
    <path
       id="rect9-5-3-0"
       style="fill:#000000;fill-opacity:1;stroke:#64748b;stroke-width:0.0360754;stroke-linecap:round;stroke-linejoin:round;stroke-miterlimit:50;stroke-opacity:0;paint-order:stroke fill markers"
       d="M 11.224844,0.01882329 H 12.16487 V 6.2960511 h -0.940026 z" />
    <path
       id="rect9-38-9-2-5"
       style="fill:#000000;fill-opacity:1;stroke:#64748b;stroke-width:0.0220342;stroke-linecap:round;stroke-linejoin:round;stroke-miterlimit:50;stroke-opacity:0;paint-order:stroke fill markers"
       d="m 17.319816,6.2610332 v -0.998964 h 2.201864 v 0.998964 z" />
    <path
       id="path11-6"
       style="font-style:normal;font-variant:normal;font-weight:500;font-stretch:normal;font-size:56.338px;line-height:1.05;font-family:Geist;-inkscape-font-specification:'Geist, Medium';font-variant-ligatures:normal;font-variant-caps:normal;font-variant-numeric:normal;font-variant-east-asian:normal;fill:#000000;fill-opacity:1;stroke:#000000;stroke-width:0;stroke-linecap:round;stroke-miterlimit:50;stroke-dasharray:none;stroke-dashoffset:1.6776;paint-order:markers fill stroke"
       d="M 17.356647,0.01612241 V 4.600926 l 0.863456,0.00345 V 0.80763814 h 0.959376 c 1.252568,0 1.878862,0.68489286 1.878862,2.05472166 0,0.8479613 -0.243767,1.4313709 -0.731304,1.7503038 l 1.183859,0.00463 c 0.29484,-0.4559541 0.442948,-1.0405692 0.442948,-1.7549249 0,-0.9114405 -0.239863,-1.6123148 -0.71957,-2.10268112 C 20.754567,0.26399187 20.0696,0.01613775 19.179479,0.01613775 Z" />
  </g>
</svg>
